<svg width="0" height="0" class="hidden">
  <symbol xmlns="http://www.w3.org/2000/svg" viewBox="0 0 512 512" id="washing_machine">
    <path d="M402 504.5H110c-16.569 0-30-13.432-30-30v-437c0-16.568 13.432-30 30-30h292c16.569 0 30 13.432 30 30v437c0 16.568-13.431 30-30 30z" fill="#f3eae6"></path>
    <path d="M402 7.5h-4.023a29.854 29.854 0 014.023 15v176.691C402 359.524 272.024 489.5 111.691 489.5H84.023c5.188 8.964 14.874 15 25.977 15h292c16.569 0 30-13.432 30-30v-437c0-16.568-13.431-30-30-30z" fill="#e1d3ce"></path>
    <path d="M402 504.5l-42.138-15-47.772 15H110c-16.569 0-30-13.432-30-30v-39.645h352V474.5c0 16.568-13.431 30-30 30z" fill="#aca6d6"></path>
    <path d="M431.998 37.505v436.991c0 16.57-13.425 30.005-29.995 30.005H109.997c-11.095 0-20.783-6.038-25.976-14.998h27.675c63.29 0 121.862-20.258 169.562-54.65 73.133-52.709 120.746-138.626 120.746-235.658V22.498A29.862 29.862 0 00397.975 7.5h4.029c16.569 0 29.994 13.434 29.994 30.005z" fill="#e1d3ce"></path>
    <path d="M431.998 434.852v39.643c0 16.57-13.425 30.005-29.995 30.005l-42.138-14.998-47.778 14.998h-202.09c-11.095 0-20.783-6.038-25.976-14.998h27.675c63.29 0 121.862-20.258 169.562-54.65z" fill="#978ecb"></path>
    <path d="M432 97.5H80v-60c0-16.568 13.432-30 30-30h292c16.569 0 30 13.432 30 30z" fill="#aca6d6"></path>
    <path d="M402 7.5h-4.023a29.854 29.854 0 014.023 15v75h30v-60c0-16.568-13.431-30-30-30zm-292 0c-16.569 0-30 13.432-30 30v60h124.856v-90z" fill="#978ecb"></path>
    <g fill="#faf7f7">
      <path d="M402 504.5h-89.908v-32.645a7 7 0 017-7H395a7 7 0 017 7zm-107.145-443v-18a6 6 0 016-6H396a6 6 0 016 6v18a6 6 0 01-6 6h-95.145a6 6 0 01-6-6z"></path>
      <circle cx="249.856" cy="52.5" transform="rotate(-45 249.864 52.55)" r="15"></circle>
    </g>
    <path d="M174.856 45H110a7.5 7.5 0 010-15h64.855a7.5 7.5 0 01.001 15zm0 30H110a7.5 7.5 0 010-15h64.855a7.5 7.5 0 01.001 15z" fill="#faf7f7"></path>
    <circle cx="256" cy="266.178" fill="#b3dafe" r="108.916"></circle>
    <circle cx="256" cy="266.177" fill="#8ac9fe" r="78.916"></circle>
    <path d="M234.475 272.703a7.474 7.474 0 01-5.303-2.197 7.5 7.5 0 010-10.606l28.05-28.05a7.5 7.5 0 0110.606 0 7.5 7.5 0 010 10.606l-28.05 28.05a7.476 7.476 0 01-5.303 2.197zm15 30a7.474 7.474 0 01-5.303-2.197 7.5 7.5 0 010-10.606l28.05-28.05a7.5 7.5 0 0110.606 10.607l-28.05 28.05a7.48 7.48 0 01-5.303 2.196z" fill="#d8ecfe"></path>
    <path d="M402 0H110C89.322 0 72.5 16.822 72.5 37.5v437c0 20.678 16.822 37.5 37.5 37.5h292c20.678 0 37.5-16.822 37.5-37.5v-437C439.5 16.822 422.678 0 402 0zM87.5 37.5C87.5 25.093 97.593 15 110 15h87.355v75H87.5zm307 459.5h-74.908v-24.645H394.5zm30-69.645h-87.379a7.5 7.5 0 000 15H424.5V474.5c0 9.777-6.271 18.114-15 21.21v-23.855c0-7.995-6.505-14.5-14.5-14.5h-75.908c-7.995 0-14.5 6.505-14.5 14.5V497H110c-12.407 0-22.5-10.093-22.5-22.5v-32.145h219.621a7.5 7.5 0 000-15H87.5V105h337zM424.5 90H212.355V15H402c12.407 0 22.5 10.093 22.5 22.5zM256 382.594c64.192 0 116.416-52.224 116.416-116.416S320.192 149.761 256 149.761c-22.398 0-44.151 6.378-62.907 18.444a7.5 7.5 0 008.115 12.615c16.33-10.506 35.277-16.059 54.791-16.059 55.921 0 101.416 45.495 101.416 101.417 0 55.921-45.495 101.416-101.416 101.416s-101.416-45.495-101.416-101.416c0-25.207 9.308-49.37 26.209-68.039a7.501 7.501 0 00-11.12-10.068c-19.403 21.433-30.089 49.172-30.089 78.106.001 64.193 52.225 116.417 116.417 116.417zM174.855 60H110a7.5 7.5 0 000 15h64.855a7.5 7.5 0 000-15zm0-30H110a7.5 7.5 0 000 15h64.855a7.5 7.5 0 000-15zm69.317 270.506a7.5 7.5 0 0010.606 0l28.05-28.05a7.5 7.5 0 000-10.606 7.5 7.5 0 00-10.606 0l-28.05 28.05a7.5 7.5 0 000 10.606zM249.855 30c-12.407 0-22.5 10.093-22.5 22.5s10.093 22.5 22.5 22.5 22.5-10.093 22.5-22.5-10.093-22.5-22.5-22.5zm0 30c-4.136 0-7.5-3.364-7.5-7.5s3.364-7.5 7.5-7.5 7.5 3.364 7.5 7.5-3.364 7.5-7.5 7.5zM396 30h-95.145c-7.444 0-13.5 6.056-13.5 13.5v18c0 7.444 6.056 13.5 13.5 13.5H396c7.444 0 13.5-6.056 13.5-13.5v-18c0-7.444-6.056-13.5-13.5-13.5zm-1.5 30h-92.145V45H394.5zM256 352.593c47.65 0 86.416-38.766 86.416-86.416S303.65 179.761 256 179.761s-86.416 38.766-86.416 86.416S208.35 352.593 256 352.593zm0-157.832c39.379 0 71.416 32.037 71.416 71.416S295.379 337.593 256 337.593s-71.416-32.037-71.416-71.416 32.037-71.416 71.416-71.416zm-16.222 75.745l28.05-28.05a7.5 7.5 0 000-10.606 7.5 7.5 0 00-10.606 0l-28.05 28.05a7.5 7.5 0 0010.606 10.606z"></path>
  </symbol>
  <symbol xmlns="http://www.w3.org/2000/svg" viewBox="0 0 511.997 511.997" id="measuring_spoon">
    <path d="M147.062 397.629L19.513 267.914l42.677-93.557c15.837-34.719 61.542-42.781 88.294-15.575l72.088 73.312z" fill="#b3dafe"></path>
    <path d="M150.484 158.782c-14.85-15.102-35.537-19.32-53.716-14.16 8.609 2.467 16.798 7.125 23.716 14.16l41.424 42.128c18.469 18.783 23.446 47.009 12.513 70.976l-47.852 104.902 20.493 20.841 75.51-165.534z" fill="#8ac9fe"></path>
    <path d="M476.882 185.426L15.877 266.747c-6.182 1.09-9.896 7.486-7.782 13.401l25.827 72.279c17.934 50.19 69.415 80.132 121.867 70.879s90.592-55.004 90.286-108.303l-.055-9.6c-.104-18.141 12.877-33.713 30.73-36.863l208.305-36.745c12.795-2.257 21.338-14.467 19.081-27.272-2.256-12.804-14.458-21.354-27.254-19.097z" fill="#f58a97"></path>
    <path d="M504.137 204.524c-2.257-12.805-14.459-21.355-27.254-19.098l-3.627.64c.375 1.112.671 2.267.881 3.458 2.257 12.805-6.286 25.015-19.081 27.271L246.75 253.541c-17.853 3.149-30.835 18.722-30.73 36.863l.055 9.6c.307 53.299-37.833 99.05-90.286 108.303-17.952 3.167-35.789 1.74-52.207-3.516 23.157 16.433 52.525 23.751 82.207 18.516 52.452-9.253 90.592-55.004 90.286-108.303l-.055-9.6c-.104-18.141 12.877-33.713 30.73-36.863l208.305-36.745c12.795-2.257 21.338-14.467 19.082-27.272z" fill="#f07281"></path>
    <path d="M133.603 126.412l-18.297 7.865a5 5 0 00-2.802 3.116l-5.885 19.026c-1.374 4.441-7.534 4.768-9.37.497l-7.865-18.297a5 5 0 00-3.116-2.802l-19.026-5.885c-4.441-1.374-4.768-7.534-.497-9.37l18.297-7.865a5 5 0 002.802-3.116l5.885-19.026c1.374-4.441 7.534-4.768 9.37-.497l7.865 18.297a5 5 0 003.116 2.802l19.026 5.885c4.441 1.373 4.768 7.534.497 9.37z" fill="#faf7f7"></path>
    <path d="M141.287 214.474a7.576 7.576 0 00-2.63-14.921 7.575 7.575 0 00-6.142 8.775 7.574 7.574 0 008.772 6.146zm370.236-11.252c-2.946-16.71-19.362-28.192-35.943-25.182l-121.419 21.418a7.499 7.499 0 00-6.083 8.688c.72 4.08 4.613 6.809 8.688 6.083l121.419-21.418c8.557-1.566 17.049 4.419 18.565 13.014 1.536 8.712-4.295 17.048-12.998 18.583l-208.306 36.745a44.61 44.61 0 00-22.03 10.673l-.144-39.342 74.355-13.116a7.499 7.499 0 006.083-8.688c-.719-4.079-4.609-6.807-8.688-6.083L223.63 222.484l-67.793-68.957c-7.914-8.049-17.572-13.625-28.105-16.429l8.833-3.797c4.864-2.091 7.826-6.857 7.546-12.145s-3.729-9.715-8.789-11.281l-17.924-5.544-7.409-17.236c-2.09-4.865-6.865-7.829-12.145-7.547-5.288.28-9.715 3.729-11.281 8.789l-5.544 17.924-17.236 7.409c-4.864 2.091-7.827 6.858-7.546 12.146.28 5.288 3.73 9.715 8.789 11.28l17.256 5.337c-11.819 6.338-21.224 16.333-26.917 28.809l-18.723 41.045a7.5 7.5 0 003.711 9.937c3.69 1.684 8.201.106 9.937-3.711l18.723-41.044c4.203-9.212 11.067-16.642 19.686-21.455l1.661 3.863c2.103 4.893 6.898 7.824 12.146 7.546 5.287-.28 9.715-3.729 11.28-8.788l2.599-8.403c10.876 1.042 20.925 5.846 28.757 13.812l60.563 61.603-172.554 30.438 6.176-13.539a7.5 7.5 0 00-13.648-6.226l-11.104 23.041a17.6 17.6 0 00-12.181 8.504 17.613 17.613 0 00-1.361 14.807l25.827 72.279c19.29 54.142 74.804 85.519 130.233 75.741 56.229-9.919 96.803-58.583 96.483-115.714v-.044c-2.08-17.967 5.424-35.649 24.478-39.006l208.306-36.745c16.845-2.973 28.134-19.105 25.163-35.961zm-399.178-75.836a12.482 12.482 0 00-7.006 7.79l-1.597 5.162-.031.1-2.252 7.282-5.185-12.062a12.482 12.482 0 00-7.79-7.006l-12.543-3.88 12.062-5.185a12.481 12.481 0 007.006-7.791l3.88-12.543 5.185 12.062a12.482 12.482 0 007.79 7.006l12.543 3.88zm125.938 107.745c-.999 7.353.251 72.719.292 79.915.287 49.805-35.078 92.229-84.089 100.875-48.373 8.533-96.574-18.616-113.502-66.017l-25.826-72.278c-.547-1.752.222-3.103 2.022-3.492zM93.915 207.446a7.576 7.576 0 00-2.63-14.921c-4.118.727-6.868 4.655-6.142 8.775s4.654 6.872 8.772 6.146z"></path>
  </symbol>
  <symbol xmlns="http://www.w3.org/2000/svg" viewBox="0 0 512 512" id="detergent">
    <path d="M306.629 86.5h-96.265c-6.255 0-11.325-5.071-11.325-11.325v-26.35c0-6.255 5.07-11.325 11.325-11.325h96.265c6.255 0 11.325 5.07 11.325 11.325v26.349c0 6.255-5.071 11.326-11.325 11.326z" fill="#b5adb6"></path>
    <path d="M306.629 37.5h-30c6.255 0 11.326 5.07 11.326 11.325v26.35c0 6.255-5.071 11.325-11.326 11.325h30c6.255 0 11.326-5.07 11.326-11.325v-26.35c-.001-6.255-5.072-11.325-11.326-11.325z" fill="#a79ba7"></path>
    <path d="M300.966 37.5h-84.94v-15c0-8.284 6.716-15 15-15h54.94c8.284 0 15 6.716 15 15z" fill="#cbc4cc"></path>
    <path d="M285.966 7.5h-30c8.284 0 15 6.716 15 15v15h30v-15c0-8.284-6.716-15-15-15z" fill="#a79ba7"></path>
    <path d="M350.664 149.874L295.996 86.5h-75l-59.758 69.275c-47.303 54.836-65.676 128.916-49.481 199.501l27.113 118.169c4.17 18.173 20.342 31.055 38.987 31.055h147.998c17.844 0 33.53-11.82 38.45-28.972L397.09 361.22c21.157-73.77 3.702-153.235-46.426-211.346zm-24.34 224.836c-21.748 0-39.379-37.424-39.379-83.589s17.63-83.59 39.379-83.59c21.748 0 39.378 37.424 39.378 83.59.001 46.164-17.63 83.589-39.378 83.589z" fill="#fee97d"></path>
    <g fill="#fedf30">
      <path d="M350.664 149.874L295.996 86.5h-30l54.668 63.374c50.128 58.111 67.583 137.576 46.426 211.346l-32.784 114.308c-4.919 17.152-20.606 28.972-38.45 28.972h30c17.844 0 33.53-11.82 38.45-28.972L397.09 361.22c21.157-73.77 3.702-153.235-46.426-211.346z"></path>
      <path d="M286.945 291.12c0-46.165 17.63-83.59 39.379-83.59-7.883-2.268-18.849-3.917-30 0-38.591 13.556-39.379 79.725-39.379 83.59 0 3.866.788 70.033 39.379 83.589 11.151 3.917 22.117 2.268 30 0-21.748.001-39.379-37.424-39.379-83.589z"></path>
    </g>
    <path d="M207.451 370V221c0-16.568-13.432-30-30-30h-41.163c-28.321 49.261-37.471 107.878-24.531 164.276L122.019 400h55.432c16.569 0 30-13.432 30-30z" fill="#faf7f7"></path>
    <path d="M356.343 144.975l-44.598-51.7c7.899-2.237 13.709-9.495 13.709-18.1v-26.35c0-9.76-7.467-17.805-16.988-18.732V22.5c0-12.407-10.094-22.5-22.5-22.5h-54.939c-12.406 0-22.5 10.093-22.5 22.5v7.593c-9.521.927-16.988 8.972-16.988 18.732v26.35c0 8.605 5.811 15.863 13.709 18.1l-31.708 36.758a7.5 7.5 0 0011.357 9.798L224.431 94h68.13l52.424 60.773c48.643 56.39 65.426 132.794 44.896 204.379L357.097 473.46c-3.976 13.86-16.822 23.54-31.241 23.54H177.858c-15.242 0-28.269-10.376-31.678-25.232L131.434 407.5h46.017c20.678 0 37.5-16.822 37.5-37.5V221c0-20.678-16.822-37.5-37.5-37.5h-27.719a218.029 218.029 0 0117.185-22.826 7.5 7.5 0 00-11.357-9.798c-23.969 27.814-41.313 61.295-50.153 96.938-8.836 35.625-9.168 73.365-.959 109.139l27.113 118.169C136.542 496.835 155.58 512 177.858 512h147.998c21.073 0 39.849-14.147 45.659-34.404l32.784-114.308c21.931-76.466 4.003-158.078-47.956-218.313zM223.527 22.5c0-4.136 3.364-7.5 7.5-7.5h54.939c4.136 0 7.5 3.364 7.5 7.5V30h-69.939zm86.927 52.675A3.83 3.83 0 01306.628 79h-10.632V68.39c0-4.142-3.357-7.5-7.5-7.5s-7.5 3.358-7.5 7.5V79h-15V68.39c0-4.142-3.357-7.5-7.5-7.5s-7.5 3.358-7.5 7.5V79h-15V68.39c0-4.142-3.357-7.5-7.5-7.5s-7.5 3.358-7.5 7.5V79h-10.633a3.83 3.83 0 01-3.825-3.825v-26.35A3.83 3.83 0 01210.363 45h96.265a3.83 3.83 0 013.826 3.825zM119.067 353.599c-12.132-52.875-3.999-108.248 21.645-155.099h36.74c12.406 0 22.5 10.093 22.5 22.5v149c0 12.407-10.094 22.5-22.5 22.5h-49.459zm242.215-23.142a7.502 7.502 0 008.798-5.924c2.071-10.613 3.122-21.855 3.122-33.413 0-23.41-4.35-45.536-12.249-62.303-8.744-18.563-21.043-28.787-34.629-28.787-13.587 0-25.885 10.223-34.63 28.787-7.899 16.767-12.249 38.893-12.249 62.303s4.35 45.536 12.249 62.303c8.745 18.563 21.043 28.787 34.63 28.787 13.96 0 26.486-10.718 35.271-30.179a7.501 7.501 0 00-13.672-6.172c-6.125 13.569-13.998 21.351-21.6 21.351-15.078 0-31.879-31.249-31.879-76.089s16.801-76.09 31.879-76.09 31.878 31.249 31.878 76.09c0 10.596-.957 20.871-2.845 30.539a7.502 7.502 0 005.926 8.797z"></path>
  </symbol>
  <symbol xmlns="http://www.w3.org/2000/svg" viewBox="0 0 512 512" id="clean_clothes">
    <path d="M386.685 156.603l94.197 91.473c10.025 9.735 7.394 26.46-5.134 32.648l-122.915 60.707 21.742-180.543c.71-5.888 7.855-8.416 12.11-4.285zm-261.37 0l-94.197 91.473c-10.025 9.735-7.394 26.46 5.134 32.648l122.915 60.707-21.742-180.543c-.71-5.888-7.855-8.416-12.11-4.285zm131.696 56.715c33.675 0 60.974-27.299 60.974-60.974v-25.17l-5.078 2.527-20.314 10.108a79.866 79.866 0 01-71.163 0l-25.362-12.62-.03-.015v25.17c0 33.675 27.298 60.974 60.973 60.974z" fill="#978ecb"></path>
    <path d="M377.47 170.96l15 150.276V484.5c0 11.05-8.96 20-20 20H139.53c-11.04 0-20-8.95-20-20V171.1a20 20 0 0112.63-18.59l63.88-25.34v25.17c0 33.68 27.3 60.98 60.97 60.98 33.68 0 60.98-27.3 60.98-60.98v-25.17l62.02 25.27c7.53 3.07-2.54 10.39-2.54 18.52z" fill="#aca6d6"></path>
    <path d="M380.01 152.44l-21.89-8.919a19.972 19.972 0 014.35 12.44v128.107c0 113.457-91.975 205.432-205.433 205.432h-36.852c2.224 8.624 10.033 15 19.345 15h232.94c11.046 0 20-8.954 20-20V170.96c0-8.13-4.93-15.45-12.46-18.52z" fill="#978ecb"></path>
    <path d="M258.853 312.87l-20.961 9.01a5.73 5.73 0 00-3.21 3.57l-6.742 21.796c-1.574 5.087-8.631 5.462-10.734.569l-9.01-20.96a5.727 5.727 0 00-3.57-3.21l-21.796-6.742c-5.088-1.574-5.462-8.631-.569-10.735l20.961-9.01a5.727 5.727 0 003.21-3.57l6.742-21.796c1.574-5.088 8.631-5.462 10.735-.569l9.01 20.961a5.727 5.727 0 003.57 3.21l21.796 6.742c5.086 1.573 5.46 8.631.568 10.734zm52.403 104.335l-16.803 7.223a4.592 4.592 0 00-2.573 2.861l-5.405 17.473c-1.262 4.078-6.919 4.378-8.605.456l-7.223-16.803a4.592 4.592 0 00-2.861-2.573l-17.473-5.405c-4.078-1.262-4.378-6.919-.456-8.605l16.803-7.223a4.591 4.591 0 002.573-2.862l5.405-17.473c1.262-4.078 6.919-4.379 8.605-.456l7.223 16.803a4.591 4.591 0 002.862 2.573L310.8 408.6c4.078 1.262 4.378 6.92.456 8.605z" fill="#fff"></path>
    <path d="M246.895 404.942c-4.706 2.023-7.571 6.635-7.3 11.75.272 5.115 3.609 9.397 8.502 10.91l16.19 5.008 6.692 15.569c2.026 4.719 6.677 7.569 11.749 7.3 5.115-.271 9.398-3.608 10.912-8.501l5.008-16.19 15.569-6.692c4.705-2.022 7.571-6.634 7.3-11.749s-3.607-9.398-8.501-10.912l-16.19-5.008-6.693-15.57c-2.022-4.706-6.661-7.571-11.749-7.299-5.114.271-9.397 3.608-10.911 8.501l-5.009 16.19zm22.727 6.558a12.07 12.07 0 006.775-7.536l3.072-9.932 4.106 9.552a12.072 12.072 0 007.534 6.775l9.932 3.072-9.552 4.105a12.07 12.07 0 00-6.775 7.536l-3.071 9.931-4.106-9.551a12.072 12.072 0 00-7.534-6.775l-9.932-3.072zM260.5 294.971l-21.015-6.501-8.688-20.208c-2.213-5.147-7.264-8.29-12.852-7.986-5.596.296-10.282 3.946-11.938 9.3l-6.501 21.015-20.209 8.688c-5.147 2.213-8.281 7.258-7.984 12.854s3.947 10.28 9.3 11.936l21.015 6.5 8.687 20.21c2.117 4.923 6.823 8.005 12.125 8.004 5.841-.001 10.945-3.723 12.665-9.319l6.501-21.015 20.209-8.687c5.147-2.213 8.282-7.258 7.985-12.854s-3.947-10.282-9.3-11.937zm-25.568 20.018a13.206 13.206 0 00-7.414 8.244l-5.321 17.202-7.11-16.541a13.208 13.208 0 00-8.243-7.414l-17.202-5.321 16.543-7.111a13.205 13.205 0 007.412-8.244l5.32-17.201 7.111 16.541a13.202 13.202 0 008.243 7.414l17.201 5.321zm20.959-9.009l-.006.002a.014.014 0 01.006-.002zm230.213-63.28l-94.22-91.499c-2.521-2.37-5.802-4.371-9.045-5.705l-61.178-24.922-57.65-41.974V54.899c13.761-.787 24.714-12.213 24.714-26.146C288.725 12.482 276.461 0 260.227 0c-14.861 0-26.951 12.072-26.951 26.911 0 4.142 3.357 7.5 7.5 7.5s7.5-3.358 7.5-7.5c0-6.568 5.361-11.911 11.951-11.911 7.858 0 13.498 5.888 13.498 13.753 0 6.17-5.037 11.189-11.229 11.189-7.436 0-13.485 6.044-13.485 13.473v24.503l-56.678 42.657-62.937 24.961c-3.271 1.328-6.743 3.263-9.301 5.684l-94.197 91.477a27.752 27.752 0 00-8.082 24.202 27.741 27.741 0 0015.112 20.546l79.105 39.068v85.748c0 4.142 3.357 7.5 7.5 7.5s7.5-3.358 7.5-7.5V171.099c-.003-5.153 3.19-9.759 7.892-11.62l53.611-21.262v14.127c0 37.756 30.718 68.474 68.475 68.474 11.676 0 23.206-2.993 33.344-8.654a7.5 7.5 0 00-7.314-13.096c-7.907 4.416-16.908 6.75-26.029 6.75-29.486 0-53.475-23.988-53.475-53.474v-13.061l14.551 7.24c24.372 12.128 53.472 12.128 77.846 0l14.552-7.241v13.061c0 10.92-3.268 21.42-9.451 30.365a7.501 7.501 0 001.905 10.434c3.374 2.332 8.06 1.53 10.435-1.905 7.923-11.463 12.111-24.913 12.111-38.894v-14.016l51.696 21.06a12.45 12.45 0 017.784 11.576V484.5c0 6.893-5.607 12.5-12.5 12.5H139.534c-6.893 0-12.5-5.607-12.5-12.5v-42.239c0-4.142-3.357-7.5-7.5-7.5s-7.5 3.358-7.5 7.5V484.5c0 15.164 12.336 27.5 27.5 27.5h232.932c15.164 0 27.5-12.336 27.5-27.5V326.513l79.102-39.066a27.745 27.745 0 0015.116-20.548 27.747 27.747 0 00-8.08-24.199zm-374.07 67.083l-72.467-35.79c-3.755-1.852-6.282-5.288-6.934-9.426-.65-4.14.701-8.187 3.711-11.107l75.689-73.503v129.826zm177.218-176.688c-20.19 10.046-44.293 10.046-64.481 0l-14.525-7.228 45.828-34.491 47.508 34.588zm190.114 131.473c-.651 4.138-3.179 7.574-6.938 9.428l-72.463 35.788V179.957l75.692 73.506c3.008 2.918 4.36 6.965 3.709 11.105z"></path>
  </symbol>
  <symbol xmlns="http://www.w3.org/2000/svg" viewBox="0 0 512 512" id="dress">
    <path d="M462.729 504.5c5.688 0 9.644-5.599 7.783-10.961-18.96-54.626-20.188-97.869-17.256-128.435 4.432-46.208 20.866-89.474-3.863-123.054-9.013-12.238-20.067-18.536-21.245-33.647-1.766-22.651 21.27-31.602 19.313-54.796-1.167-13.817-11.088-31.338-27.039-33.647-14.127-2.046-30.028 8.268-36.695 25.956-6.667-17.689-22.568-28.002-36.695-25.956-15.951 2.309-25.873 19.83-27.039 33.647-1.957 23.194 21.079 32.145 19.313 54.796-1.178 15.111-12.232 21.409-21.245 33.647-24.729 33.58-8.295 76.846-3.863 123.054 2.932 30.565 1.704 73.808-17.256 128.435-1.861 5.362 2.095 10.961 7.783 10.961z" fill="#f58a97"></path>
    <path d="M470.512 493.539c-18.961-54.626-20.188-97.869-17.256-128.435 4.432-46.208 20.866-89.474-3.863-123.054-9.013-12.238-20.066-18.537-21.244-33.647-1.766-22.651 21.27-31.602 19.313-54.796-1.167-13.817-11.088-31.337-27.039-33.647-6.367-.922-13.092.673-19.172 4.316 9.551 6.557 15.337 18.982 16.211 29.331 1.957 23.194-21.08 32.145-19.313 54.796 1.178 15.111 12.232 21.409 21.244 33.647 24.729 33.58 8.295 76.845 3.863 123.054-2.932 30.565-1.705 73.808 17.256 128.435 1.861 5.362-2.095 10.961-7.783 10.961h30c5.688 0 9.644-5.599 7.783-10.961z" fill="#f07281"></path>
    <path d="M207.273 504.5c5.688 0 9.644-5.599 7.783-10.961-18.96-54.626-20.188-97.869-17.256-128.435 4.432-46.208 20.866-89.474-3.863-123.054-9.013-12.238-20.067-18.536-21.245-33.647-1.766-22.651 21.27-31.602 19.313-54.796-1.166-13.817-11.088-31.338-27.039-33.647-14.127-2.046-30.028 8.268-36.695 25.956-6.667-17.689-22.568-28.002-36.695-25.956-15.951 2.309-25.873 19.83-27.039 33.647-1.957 23.194 21.079 32.145 19.313 54.796-1.178 15.111-12.232 21.409-21.245 33.647-24.729 33.58-8.295 76.846-3.863 123.054 2.932 30.565 1.704 73.808-17.256 128.435-1.861 5.362 2.095 10.961 7.783 10.961z" fill="#aca6d6"></path>
    <path d="M215.056 493.539c-18.96-54.626-20.188-97.869-17.256-128.435 4.432-46.208 20.866-89.474-3.863-123.054-9.013-12.238-20.066-18.537-21.244-33.647-1.766-22.651 21.27-31.602 19.313-54.796-1.167-13.817-11.088-31.337-27.039-33.647-6.367-.922-13.092.673-19.172 4.316 9.551 6.557 15.337 18.982 16.211 29.331 1.957 23.194-21.08 32.145-19.313 54.796 1.178 15.111 12.232 21.409 21.244 33.647 24.729 33.58 8.295 76.845 3.863 123.054-2.932 30.565-1.705 73.808 17.256 128.435 1.861 5.362-2.095 10.961-7.783 10.961h30c5.688 0 9.644-5.599 7.783-10.961z" fill="#978ecb"></path>
    <path d="M221.564 101.623l-86.478-30.856V56.063c14.577-.746 25.488-13.603 25.488-28.592C160.575 12.324 148.212 0 133.015 0c-15.749 0-29.156 11.637-29.156 27.471 0 4.142 3.357 7.5 7.5 7.5s7.5-3.358 7.5-7.5c0-7.495 6.717-12.471 14.156-12.471 6.926 0 12.561 5.595 12.561 12.471 0 7.027-4.258 13.624-11.815 13.624-7.539 0-13.673 6.121-13.673 13.645v16.517l-85.107 30.367a7.5 7.5 0 00-4.543 9.585c1.409 3.947 5.769 5.911 9.584 4.544l39.109-13.955v14.64c-4.762 2.682-9.052 6.594-12.696 11.639-5.229 7.24-8.645 16.315-9.369 24.9-1.206 14.295 5.247 24.007 10.94 32.576 4.853 7.305 9.044 13.613 8.369 22.269-.63 8.086-5.027 12.885-11.114 19.527-2.719 2.968-5.802 6.331-8.691 10.256-20.671 28.069-15.365 61.108-9.748 96.087 1.682 10.472 3.42 21.3 4.459 32.13 3.821 39.843-1.856 81.986-16.876 125.259a15.793 15.793 0 002.042 14.31 15.763 15.763 0 0012.826 6.611h158.002c5.086 0 9.88-2.471 12.825-6.61a15.793 15.793 0 002.042-14.31c-4.961-14.295-8.954-28.622-11.866-42.583-.847-4.055-4.826-6.656-8.873-5.811a7.5 7.5 0 00-5.811 8.873c3.043 14.588 7.208 29.54 12.38 44.44.032.094.131.378-.095.696-.219.303-.498.303-.604.303H49.271c-.105 0-.386 0-.604-.306-.226-.317-.127-.602-.095-.695 15.733-45.325 21.667-89.604 17.638-131.61-1.085-11.305-2.862-22.373-4.581-33.076-5.325-33.165-9.925-61.809 7.017-84.814 2.414-3.277 5.087-6.195 7.673-9.016 5.581-6.09 11.316-12.349 13.826-21.579h76.253c2.511 9.229 8.245 15.488 13.826 21.579 2.586 2.821 5.259 5.739 7.673 9.016 16.941 23.005 12.342 51.648 7.017 84.813-1.719 10.704-3.496 21.772-4.58 33.077-1.834 19.119-1.619 38.844.64 58.629a7.5 7.5 0 0014.903-1.701c-2.14-18.746-2.345-37.417-.61-55.496 1.039-10.83 2.777-21.659 4.459-32.131 5.616-34.979 10.921-68.017-9.749-96.086-2.89-3.925-5.973-7.288-8.691-10.256-6.087-6.642-10.484-11.441-11.114-19.527-.675-8.655 3.516-14.964 8.369-22.268 5.693-8.568 12.146-18.28 10.941-32.576-.726-8.585-4.141-17.66-9.37-24.899-3.645-5.046-7.937-8.959-12.7-11.642v-14.639l39.113 13.956a7.505 7.505 0 009.584-4.544 7.503 7.503 0 00-4.545-9.586zM94.13 96.445l34.143-12.183 34.138 12.181v15.797c-12.82-.429-25.548 6.515-34.138 18.11-8.591-11.597-21.311-18.544-34.143-18.11zm90.403 57.792c.767 9.086-3.521 15.54-8.487 23.014-4.42 6.653-9.292 14.018-10.6 23.652H91.099c-1.307-9.634-6.18-16.999-10.601-23.652-4.965-7.474-9.253-13.928-8.486-23.014 1.259-14.924 11.694-25.56 20.641-26.855 11.146-1.614 23.442 7.491 28.603 21.179a7.5 7.5 0 0014.036 0c5.158-13.688 17.454-22.791 28.602-21.179 8.944 1.296 19.379 11.932 20.639 26.855zm292.488-52.614l-86.478-30.856V56.063c14.569-.746 25.454-13.603 25.487-28.592C416.065 11.599 402.625 0 386.875 0c-15.197 0-27.561 12.324-27.561 27.471 0 4.142 3.357 7.5 7.5 7.5s7.5-3.358 7.5-7.5c0-6.877 5.635-12.471 12.561-12.471 7.436 0 14.155 4.983 14.155 12.471 0 7.072-4.35 13.624-11.815 13.624-7.539 0-13.673 6.121-13.673 13.645v16.516l-85.108 30.367a7.5 7.5 0 005.041 14.129l39.113-13.956v14.639c-12.49 7-20.878 22.417-22.069 36.542-1.206 14.295 5.247 24.007 10.94 32.576 4.853 7.304 9.044 13.613 8.369 22.267-.952 12.204-12.42 19.753-19.807 29.784-20.671 28.069-15.365 61.108-9.748 96.087 1.682 10.472 3.42 21.3 4.459 32.13 3.821 39.843-1.857 81.986-16.875 125.259a15.793 15.793 0 002.042 14.31 15.765 15.765 0 0012.825 6.61h158.002c5.087 0 9.881-2.471 12.826-6.611a15.793 15.793 0 002.042-14.31c-15.019-43.271-20.696-85.414-16.875-125.259 1.039-10.832 2.777-21.661 4.46-32.134 1.95-12.148 3.793-23.622 4.609-34.989a7.5 7.5 0 10-14.961-1.075c-.77 10.712-2.562 21.871-4.459 33.686-1.719 10.705-3.496 21.773-4.581 33.08-4.029 42.007 1.904 86.287 17.637 131.61.129.373-.28 1.046-.698 1.001H304.727c-.418.044-.826-.63-.697-1.001 15.731-45.325 21.666-89.605 17.637-131.61-1.085-11.305-2.861-22.372-4.58-33.075-5.326-33.166-9.926-61.81 7.016-84.815 7.693-10.447 17.76-16.939 21.5-30.595h76.253c3.689 13.502 13.884 20.252 21.5 30.595 5.52 7.495 9.013 15.919 10.679 25.751.692 4.084 4.569 6.837 8.647 6.142a7.5 7.5 0 006.142-8.647c-2.067-12.199-6.447-22.712-13.39-32.14-7.395-10.043-18.858-17.615-19.807-29.783-.675-8.655 3.517-14.963 8.369-22.268 5.693-8.569 12.147-18.281 10.94-32.576-1.189-14.095-9.683-29.58-22.065-36.539v-14.64l39.109 13.955c3.804 1.364 8.175-.595 9.584-4.544a7.502 7.502 0 00-4.543-9.586zm-127.431-5.18l34.138-12.181 34.143 12.183v15.795c-12.824-.431-25.552 6.514-34.143 18.11-8.59-11.595-21.316-18.544-34.138-18.111zm90.398 57.794c.767 9.086-3.522 15.54-8.486 23.014-4.421 6.653-9.294 14.018-10.601 23.652h-74.347c-1.307-9.634-6.18-16.999-10.6-23.652-4.965-7.473-9.253-13.927-8.486-23.014 1.259-14.924 11.693-25.56 20.64-26.855 11.147-1.614 23.442 7.491 28.602 21.179a7.5 7.5 0 0014.036 0c5.16-13.688 17.452-22.791 28.603-21.179 8.945 1.296 19.38 11.932 20.639 26.855z"></path>
  </symbol>
  <symbol xmlns="http://www.w3.org/2000/svg" viewBox="0 0 512.004 512.004" id="016-jeans">
    <path d="M428.64 116.979H83.364c-5.523 0-10 4.477-10 10v42.523H438.64v-42.523c0-5.523-4.477-10-10-10z" fill="#8ac9fe"></path>
    <path d="M324.866 512.002H428.64c5.523 0 10-4.477 10-10v-332.5l-15-27.524c0-5.523-4.477-10-10-10H98.364c-5.523 0-10 4.477-10 10l-15 27.524v332.5c0 5.523 4.477 10 10 10h104a9.999 9.999 0 009.598-7.194l55.2-188.829c1.123-3.835 6.555-3.835 7.678 0l55.43 188.84a10.002 10.002 0 009.596 7.183z" fill="#b3dafe"></path>
    <path d="M428.64 116.979h-20v284.36c0 52.833-42.83 95.663-95.663 95.663l2.294 7.816a10 10 0 009.595 7.184H428.64c5.523 0 10-4.477 10-10V126.979c0-5.523-4.477-10-10-10z" fill="#8ac9fe"></path>
    <path d="M428.64 116.979H83.364c-5.523 0-10 4.477-10 10v42.523H438.64v-42.523c0-5.523-4.477-10-10-10z" fill="#60b7ff"></path>
    <path d="M438.437 124.963a9.936 9.936 0 00-1.505-3.576 9.99 9.99 0 00-8.292-4.409h-20v52.523h30v-42.523c0-.69-.07-1.364-.203-2.015z" fill="#26a6fe"></path>
    <path d="M271.002 285.557c-16.569 0-30-13.431-30-30v-86.055h30zm167.638-32.259c-46.279 0-83.796-37.517-83.796-83.796h83.796z" fill="#c4e2ff"></path>
    <path d="M408.64 247.745a83.553 83.553 0 0030 5.553v-83.796h-30z" fill="#b3dafe"></path>
    <path d="M73.364 253.298c46.279 0 83.796-37.517 83.796-83.796H73.364z" fill="#c4e2ff"></path>
    <path d="M368.993 130.148a12.29 12.29 0 01-12.16-10.503l-8.634-58.71c-1.091-7.42 4.66-14.079 12.16-14.079h17.268c7.5 0 13.251 6.659 12.16 14.079l-8.634 58.71a12.29 12.29 0 01-12.16 10.503zm-225.982 0a12.29 12.29 0 0012.16-10.503l8.634-58.71c1.091-7.42-4.66-14.079-12.16-14.079h-17.268c-7.5 0-13.251 6.659-12.16 14.079l8.634 58.71a12.29 12.29 0 0012.16 10.503z" fill="#a79ba7"></path>
    <path d="M267.039 313.873c-1.447-4.947-5.883-8.271-11.037-8.271s-9.59 3.324-11.037 8.27l-55.182 188.523a7.5 7.5 0 005.092 9.305 7.498 7.498 0 009.305-5.091l51.822-177.047 51.822 177.047c1.168 4.016 5.416 6.229 9.305 5.091a7.5 7.5 0 005.092-9.305zm171.603 62.063a7.5 7.5 0 00-7.5 7.5v121.066c0 4.142 3.357 7.5 7.5 7.5s7.5-3.358 7.5-7.5V383.436a7.5 7.5 0 00-7.5-7.5zm-175.14-232.121a7.5 7.5 0 10-15 0 7.5 7.5 0 0015 0zM511.156 4.041A7.501 7.501 0 00501.042.848c-35.121 18.268-72.525 32.618-111.233 42.708a19.772 19.772 0 00-12.181-4.2h-17.269a19.778 19.778 0 00-19.06 14.473 530.436 530.436 0 01-85.291 6.923h-.154a532.123 532.123 0 01-85.146-6.915 19.774 19.774 0 00-19.062-14.481h-17.269a19.77 19.77 0 00-12.182 4.201C83.485 33.472 46.082 19.121 10.964.849A7.5 7.5 0 004.04 14.155c34.991 18.207 72.18 32.637 110.657 42.948a19.816 19.816 0 00.099 4.923l6.979 47.456H83.363c-9.649 0-17.5 7.851-17.5 17.5v377.52c0 4.142 3.357 7.5 7.5 7.5s7.5-3.358 7.5-7.5V260.488c44.372-3.625 79.862-39.114 83.488-83.486h19.47c4.143 0 7.5-3.358 7.5-7.5s-3.357-7.5-7.5-7.5H80.863v-35.02c0-1.378 1.121-2.5 2.5-2.5h41.016c2.768 7.715 10.199 13.166 18.632 13.166 8.434 0 15.865-5.451 18.633-13.166h188.717c2.768 7.715 10.198 13.166 18.633 13.166 8.433 0 15.863-5.451 18.632-13.166h41.016c1.379 0 2.5 1.122 2.5 2.5v35.02H213.821c-4.143 0-7.5 3.358-7.5 7.5s3.357 7.5 7.5 7.5h19.682v78.555c0 20.678 16.822 37.5 37.5 37.5a7.5 7.5 0 007.5-7.5V177.002h69.152c3.625 44.372 39.116 79.861 83.488 83.486v92.948c0 4.142 3.357 7.5 7.5 7.5s7.5-3.358 7.5-7.5V126.982c0-9.649-7.851-17.5-17.5-17.5H390.23l6.979-47.456c.242-1.648.268-3.3.099-4.924 38.474-10.315 75.663-24.745 110.656-42.946a7.5 7.5 0 003.192-10.115zM149.288 177.002c-3.539 36.094-32.331 64.886-68.425 68.423v-68.423zm7.108-117.283l-.007.089-.003.036-8.635 58.711a4.819 4.819 0 01-4.74 4.093c-2.358 0-4.396-1.76-4.74-4.094l-8.634-58.71c-.339-3.259 1.444-5.365 4.74-5.488h17.269c3.333.148 4.999 2.166 4.75 5.363zm7.85 49.763l5.962-40.539c28.315 4.507 57.085 6.801 85.641 6.809h.158a545.61 545.61 0 0085.787-6.815l5.963 40.545zm218.121-49.638l-8.634 58.71c-.344 2.334-2.382 4.094-4.74 4.094a4.819 4.819 0 01-4.74-4.094l-8.635-58.71-.003-.04c-.002-.038-.006-.076-.009-.113-.252-3.168 1.491-5.216 4.752-5.335h17.269c3.345.144 5.077 2.216 4.74 5.488zM263.502 276.771c-8.73-3.095-15-11.437-15-21.215v-78.555h15zm167.64-31.346c-36.094-3.538-64.887-32.329-68.425-68.423h68.425z"></path>
  </symbol>
  <symbol xmlns="http://www.w3.org/2000/svg" viewBox="0 0 512.002 512.002" id="018-socks">
    <path d="M303.868 317.691V145.179c0-5.523 4.477-10 10-10h75.633c5.523 0 10 4.477 10 10l15 48.43v128.928l-15 32.743a45.74 45.74 0 01-13.397 32.343l-11.131 26.131-62.609 62.609c-6.392 6.392-13.945 10.917-21.98 13.574-7.873 2.603-16.209-11.587-24.37-12.57-12.016-1.447-23.653 8.218-32.875-1.004-21.604-21.604-21.913-56.535-.695-78.518l67.146-69.566a15.24 15.24 0 004.278-10.588z" fill="#f3eae6"></path>
    <path d="M389.501 135.179h-5V340.28a45.74 45.74 0 01-13.397 32.343l-88.74 88.74c-13.207 13.207-31.367 18.427-48.501 15.688 7.131 6.885 15.636-3.493 24.613-1.133 10.474 2.753 21.588 17.426 31.907 14.016 8.035-2.655 15.588-7.178 21.981-13.571l62.609-62.609 11.131-26.131a45.74 45.74 0 0013.397-32.343l15-32.743V193.609l-15-48.43c0-5.523-4.477-10-10-10z" fill="#e1d3ce"></path>
    <path d="M404.501 135.179h-90.633c-5.523 0-10 4.477-10 10v48.43h110.633v-48.43c0-5.523-4.477-10-10-10z" fill="#aca6d6"></path>
    <path d="M404.501 135.179h-20v58.43h30v-48.43c0-5.523-4.477-10-10-10z" fill="#978ecb"></path>
    <path d="M414.501 322.538a51.729 51.729 0 00-7.742-.582c-28.393 0-51.409 23.017-51.409 51.409 0 16.39 7.678 30.975 19.624 40.39l26.131-26.131a45.74 45.74 0 0013.397-32.344v-32.742z" fill="#aca6d6"></path>
    <path d="M414.501 322.538a51.729 51.729 0 00-7.742-.582 51.203 51.203 0 00-22.258 5.056v13.269a45.74 45.74 0 01-13.397 32.343l-14.003 14.004a51.458 51.458 0 0017.872 27.127l17.421-17.42 8.71-8.711a45.74 45.74 0 0013.397-32.344z" fill="#978ecb"></path>
    <path d="M293.341 470.151c0 6.88-1.04 13.52-2.96 19.77a56.319 56.319 0 01-17.66 2.84c-13.61 0-27.21-4.93-37.91-14.8-.32-.3-.63-.6-.94-.9l-.01-.01c-.239-.23-.483-.453-.72-.69-19.98-19.97-21.73-51.33-5.12-73.32 30.24.81 55.5 21.6 63.02 49.66a66.91 66.91 0 012.3 17.45z" fill="#aca6d6"></path>
    <path d="M293.341 470.151c0 6.88-1.04 13.52-2.96 19.77a56.319 56.319 0 01-17.66 2.84c-13.61 0-27.21-4.93-37.91-14.8-.32-.3-.63-.6-.94-.9l-.01-.01c2.99.5 5.97.75 8.91.75 17.8 0 34.53-9.04 48.26-25.11 0 .01.01.01.01.01a66.91 66.91 0 012.3 17.45z" fill="#978ecb"></path>
    <path d="M359.184 142.151a12.29 12.29 0 01-12.16-10.503l-8.634-58.71c-1.091-7.42 4.66-14.079 12.16-14.079h17.268c7.5 0 13.251 6.659 12.16 14.079l-8.634 58.71a12.29 12.29 0 01-12.16 10.503z" fill="#a79ba7"></path>
    <path d="M94.637 317.691V145.179c0-5.523 4.477-10 10-10h75.633c5.523 0 10 4.477 10 10l15 48.43v128.928l-15 32.743a45.74 45.74 0 01-13.397 32.343l-11.131 26.131-62.609 62.609c-6.392 6.392-13.945 10.917-21.98 13.574-7.873 2.603-16.209-11.587-24.37-12.57-12.016-1.447-23.653 8.218-32.875-1.004-21.604-21.604-21.913-56.535-.695-78.518l67.146-69.566a15.24 15.24 0 004.278-10.588z" fill="#f3eae6"></path>
    <path d="M180.271 135.179h-5V340.28a45.74 45.74 0 01-13.397 32.343l-88.74 88.74c-13.207 13.207-31.367 18.427-48.501 15.688 7.131 6.885 15.636-3.493 24.613-1.133 10.473 2.753 21.588 17.426 31.907 14.016 8.035-2.655 15.588-7.178 21.981-13.571l62.609-62.609 11.131-26.131a45.74 45.74 0 0013.397-32.343l15-32.743V193.609l-15-48.43c0-5.523-4.477-10-10-10z" fill="#e1d3ce"></path>
    <path d="M195.271 135.179h-90.633c-5.523 0-10 4.477-10 10v48.43h110.633v-48.43c0-5.523-4.477-10-10-10z" fill="#aca6d6"></path>
    <path d="M195.271 135.179h-20v58.43h30v-48.43c0-5.523-4.477-10-10-10z" fill="#978ecb"></path>
    <path d="M205.271 322.538a51.729 51.729 0 00-7.742-.582c-28.393 0-51.409 23.017-51.409 51.409 0 16.39 7.678 30.975 19.624 40.39l26.131-26.131a45.74 45.74 0 0013.397-32.344v-32.742z" fill="#aca6d6"></path>
    <path d="M205.271 322.538a51.729 51.729 0 00-7.742-.582 51.203 51.203 0 00-22.258 5.056v13.269a45.74 45.74 0 01-13.397 32.343l-14.003 14.004a51.458 51.458 0 0017.872 27.127l17.421-17.42 8.71-8.711a45.74 45.74 0 0013.397-32.344z" fill="#978ecb"></path>
    <path d="M84.111 470.151c0 6.88-1.04 13.52-2.96 19.77a56.319 56.319 0 01-17.66 2.84c-13.83 0-27.65-5.08-38.42-15.27a.49.49 0 00-.13-.12c-.34-.33-.69-.67-1.03-1.01-19.98-19.97-21.73-51.33-5.12-73.32 30.25.81 55.51 21.61 63.03 49.68a66.816 66.816 0 012.29 17.43z" fill="#aca6d6"></path>
    <path d="M84.111 470.151c0 6.88-1.04 13.52-2.96 19.77a56.319 56.319 0 01-17.66 2.84c-13.83 0-27.65-5.08-38.42-15.27a.49.49 0 00-.13-.12c-.1-.11-.2-.21-.3-.31-.01 0-.01-.01-.01-.01 2.99.5 5.97.75 8.91.75 17.8 0 34.53-9.04 48.26-25.11 0 .01.01.02.02.03a66.816 66.816 0 012.29 17.43z" fill="#978ecb"></path>
    <path d="M149.954 142.151a12.29 12.29 0 01-12.16-10.503l-8.634-58.71c-1.091-7.42 4.66-14.079 12.16-14.079h17.268c7.5 0 13.251 6.659 12.16 14.079l-8.634 58.71a12.292 12.292 0 01-12.16 10.503z" fill="#a79ba7"></path>
    <path d="M91.334 476.508c3.138-37.198-21.584-70.717-57.342-79.034l61.768-63.993a22.64 22.64 0 006.381-15.787v-53.012c0-4.142-3.357-7.5-7.5-7.5s-7.5 3.358-7.5 7.5v53.012a7.705 7.705 0 01-2.176 5.372l-67.151 69.57c-23.872 24.74-23.876 64.36.794 89.031 24.262 24.263 65.498 24.619 89.827 0l62.586-62.586 26.154-26.154c10.057-10.057 15.596-23.426 15.596-37.643v-210.11c0-9.649-7.851-17.5-17.5-17.5H170.28l6.006-40.844a505.771 505.771 0 0078.548 6.344c26.082.06 52.3-1.944 78.083-5.921l5.944 40.421h-24.989c-9.649 0-17.5 7.851-17.5 17.5v48.357c0 .026-.004.052-.004.078s.004.051.004.078v124.007a7.703 7.703 0 01-2.177 5.372l-67.149 69.57c-23.891 24.753-23.882 64.357.792 89.031 24.259 24.259 65.498 24.621 89.828 0l62.58-62.58.059-.06 26.1-26.1c10.058-10.058 15.597-23.427 15.597-37.643v-210.11c0-9.649-7.851-17.5-17.5-17.5H379.51l7.624-51.842c42.519-11.398 83.237-28.136 121.095-49.82a7.5 7.5 0 002.78-10.236 7.5 7.5 0 00-10.235-2.781C464.488 33.78 425.491 49.887 384.77 60.94c-3.556-5.914-10.046-9.591-16.951-9.582h-17.268c-11.286-.068-20.512 9.846-19.744 21.042-25.068 3.879-50.565 5.845-75.938 5.774-25.561-.059-51.258-2.165-76.507-6.221.509-11.037-8.727-20.656-19.773-20.595H141.32c-6.63-.004-12.893 3.376-16.531 8.921C84.916 49.235 46.741 33.35 11.231 12.998A7.499 7.499 0 00.995 15.775a7.5 7.5 0 002.777 10.236C40.696 47.174 80.41 63.644 121.888 75.035l7.741 52.64H104.64c-9.649 0-17.5 7.851-17.5 17.5v48.357c0 .026-.004.052-.004.078s.004.051.004.078v40.995c0 4.142 3.357 7.5 7.5 7.5s7.5-3.358 7.5-7.5V201.11h95.63v113.351c-.081 0-.162-.004-.242-.004-32.482 0-58.909 26.427-58.909 58.909 0 15.329 5.862 29.728 16.284 40.621zm-16.326 7.399c-16.368 3.97-33.864-.917-45.793-12.846-15.943-15.942-18.753-41.398-6.688-60.274 29.997 2.617 54.085 28.953 54.085 59.36 0 4.659-.543 9.27-1.604 13.76zm122.763-128.622c0 10.211-3.979 19.813-11.203 27.037l-21.057 21.057c-7.614-8.09-11.891-18.715-11.891-30.014 0-24.211 19.697-43.909 43.909-43.909.081 0 .162.004.242.004zM136.562 70.542c.01-.059.025-.119.034-.179a4.831 4.831 0 011.099-2.344 4.735 4.735 0 013.626-1.66h17.268c1.907 0 3.09 1.04 3.626 1.659.535.62 1.392 1.941 1.114 3.829l-8.634 58.71c-.344 2.334-2.382 4.094-4.74 4.094a4.819 4.819 0 01-4.74-4.094l-8.634-58.711a4.82 4.82 0 01-.019-1.304zm58.709 72.133c1.379 0 2.5 1.122 2.5 2.5v40.935h-95.63v-40.935c0-1.378 1.121-2.5 2.5-2.5h30.292c3.669 4.276 9.094 6.976 15.021 6.976s11.352-2.7 15.02-6.976zm151.654-74.656a4.735 4.735 0 013.626-1.66h17.268c1.907 0 3.09 1.04 3.626 1.659.535.62 1.392 1.941 1.114 3.829l-8.634 58.71c-.344 2.334-2.382 4.094-4.74 4.094a4.819 4.819 0 01-4.74-4.094l-8.634-58.711c-.278-1.886.579-3.208 1.114-3.827zm-62.687 415.888c-16.368 3.97-33.865-.917-45.794-12.846-15.943-15.942-18.752-41.397-6.687-60.274 29.992 2.616 54.085 28.953 54.085 59.36a59.766 59.766 0 01-1.604 13.76zm16.326-7.398c3.14-37.192-21.578-70.716-57.342-79.034l61.766-63.992a22.633 22.633 0 006.383-15.788V201.11h95.63v113.351c-.081 0-.162-.004-.242-.004-13.263 0-25.788 4.305-36.222 12.449a7.5 7.5 0 00-1.297 10.527c2.564 3.285 7.284 3.829 10.527 1.297 7.772-6.066 17.104-9.273 26.991-9.273.081 0 .162.004.242.004v25.824c0 10.21-3.978 19.812-11.204 27.037l-21.057 21.057c-7.614-8.09-11.891-18.714-11.891-30.013 0-5.49.998-10.841 2.968-15.906a7.5 7.5 0 00-13.98-5.436 58.65 58.65 0 00-3.987 21.342c0 15.328 5.862 29.727 16.284 40.621zm103.937-333.834c1.379 0 2.5 1.122 2.5 2.5v40.935h-95.63v-40.935c0-1.378 1.121-2.5 2.5-2.5h30.292c3.669 4.276 9.094 6.976 15.021 6.976s11.352-2.7 15.02-6.976z"></path>
  </symbol>
  <symbol xmlns="http://www.w3.org/2000/svg" viewBox="0 0 512 512" id="021-iron">
    <path d="M444.155 271.388l-21.209-21.203 25.217-25.206c5.856-5.853 15.347-5.853 21.202.001 5.858 5.856 5.858 15.353-.001 21.21zM149.962 355.19l-21.203 21.209-25.206-25.217c-5.853-5.856-5.853-15.347.001-21.202 5.856-5.858 15.354-5.858 21.21.001zm213.103 56.975H280.63v-28.791a7.944 7.944 0 017.944-7.944h66.547a7.944 7.944 0 017.944 7.944z" fill="#b5adb6"></path>
    <path d="M504.157 420.139l-48.573-166.711c-3.159-10.841-13.466-17.984-24.731-17.162-54.373 3.969-126.421 16.823-202.452 53.695a542.032 542.032 0 00-77.15 45.677A400.523 400.523 0 0044.886 456.476l-7.59 13.275-10.046 15 423.064-15 5.78-12.366a41.845 41.845 0 0137.911-24.123c6.864 0 11.879-6.482 10.152-13.123zm-84.131-20.243l-148.253 9.745c-20.783 1.366-38.391-15.117-38.391-35.936v-.001c0-13.088 7.091-25.153 18.544-31.494a524.914 524.914 0 0157.116-27.262 525.673 525.673 0 0187.014-26.748c8.438-1.813 16.791 3.384 18.831 11.768l19.538 80.324c2.331 9.587-4.551 18.957-14.399 19.604z" fill="#fee97d"></path>
    <path d="M504.158 420.139l-48.573-166.711c-3.15-10.812-13.415-17.986-24.647-17.168-1.952.142-3.933.299-5.931.465.209.558.409 1.122.578 1.703l48.573 166.711c1.724 6.633-3.276 13.106-10.126 13.122-15.927.038-30.621 8.47-37.365 22.898a23.571 23.571 0 01-21.354 13.59H45.902c-.334.578-.684 1.146-1.016 1.726l-7.59 13.274-10.046 15 423.064-15 6.352-13.59c6.744-14.428 21.438-22.86 37.365-22.898 6.851-.016 11.85-6.489 10.127-13.122z" fill="#fedf30"></path>
    <path d="M452.955 504.5H7.5c0-19.192 15.558-34.75 34.75-34.75h410.706c9.596 0 17.375 7.779 17.375 17.375-.001 9.596-7.78 17.375-17.376 17.375z" fill="#b5adb6"></path>
    <path d="M452.955 469.75h-30c9.596 0 17.375 7.779 17.375 17.375s-7.779 17.375-17.375 17.375h30c9.596 0 17.375-7.779 17.375-17.375s-7.779-17.375-17.375-17.375z" fill="#a79ba7"></path>
    <path d="M264.55 409.392l-.004-.001c-17.479-2.357-31.164-17.332-31.164-35.685v-.001c0-13.088 7.091-25.153 18.544-31.494a525.185 525.185 0 0157.116-27.263 525.574 525.574 0 0187.015-26.747 15.918 15.918 0 0111.471 1.867l.013-.003c-12.539-16.444-22.931-18.289-27.705-18.403-2.42-.058-6.204.49-13.779 1.539-20.61 2.853-31.231 4.142-87.015 26.747a525.185 525.185 0 00-57.116 27.263c-11.454 6.34-18.544 18.406-18.544 31.494 1.088 6.388 3.741 16.209 10.855 25.762 17.23 23.137 45.764 24.742 50.313 24.925z" fill="#fedf30"></path>
    <path d="M512 163.87c0-13.9-5.412-26.961-15.233-36.77-9.815-9.828-22.876-15.24-36.776-15.24h-80.97c-26.705 0-48.43-21.726-48.43-48.43 0-12.938 5.037-25.101 14.184-34.247C353.919 20.037 366.082 15 379.02 15H504.5a7.5 7.5 0 000-15H379.02c-16.945 0-32.874 6.597-44.853 18.577-11.979 11.979-18.577 27.908-18.577 44.853 0 34.975 28.455 63.43 63.43 63.43h80.97c9.89 0 19.182 3.85 26.169 10.847C493.15 144.689 497 153.98 497 163.87a37.07 37.07 0 01-8.557 23.674l-22.305 26.822c-7.884-2.725-16.989-.972-23.282 5.311l-9.058 9.058c-20.32-.42-43.099 3.94-62.821 7.427a7.499 7.499 0 102.612 14.77 572.58 572.58 0 0157.809-7.185c7.681-.566 14.833 4.393 16.985 11.78 1.827 6.27 47.027 160.167 48.533 166.575.498 2.119-.738 3.66-2.912 3.66-22.786 0-41.042 15.66-48.464 36.488H125.169c-4.142 0-7.5 3.357-7.5 7.5s3.358 7.5 7.5 7.5h327.787c5.445 0 9.875 4.43 9.875 9.875S458.4 497 452.955 497H16.049c3.265-11.391 13.775-19.75 26.2-19.75h52.919c4.142 0 7.5-3.357 7.5-7.5s-3.358-7.5-7.5-7.5H50.224c62.462-111.598 171.903-177.027 294.778-205.486a7.5 7.5 0 10-3.385-14.613c-71.632 16.599-143.593 47.051-201.473 92.606l-10.071-10.07c-8.635-8.752-23.159-8.678-31.826-.01-8.631 8.632-8.728 23.166 0 31.807l8.051 8.051c-29.467 28.959-54.102 62.32-74.042 98.92C13.769 467.957 0 484.646 0 504.5a7.5 7.5 0 007.5 7.5h445.455c13.716 0 24.875-11.159 24.875-24.875 0-10.75-6.855-19.927-16.424-23.395 5.263-13.573 17.903-22.969 32.598-22.969 11.483 0 20.302-11.401 17.411-22.51a6.493 6.493 0 00-.058-.211L465.5 260.649l9.163-9.156c7.359-7.303 8.644-19.093 3.197-27.762l22.115-26.593A52.106 52.106 0 00512 163.87zM108.854 335.283a7.455 7.455 0 015.307-2.203c1.999 0 3.877.779 5.296 2.204l9.014 9.014a408.737 408.737 0 00-11.274 9.922l-8.344-8.344c-2.92-2.92-2.92-7.672.001-10.593zm355.205-94.398l-3.986 3.983a31.618 31.618 0 00-10.233-10.961l3.619-3.619c2.926-2.92 7.68-2.922 10.598-.004a7.446 7.446 0 012.203 5.297c0 2-.782 3.885-2.201 5.304zm-215.765 94.764c-13.824 7.653-22.412 22.235-22.412 38.056 0 11.987 5.019 23.563 13.771 31.758 8.066 7.553 18.788 11.756 29.786 11.755.94 0 1.883-.03 2.826-.093l148.254-9.745a23.336 23.336 0 0017.322-9.498 23.332 23.332 0 003.872-19.362l-19.538-80.323c-3.017-12.404-15.183-20.013-27.693-17.329a534.787 534.787 0 00-88.256 27.13 534.398 534.398 0 00-57.932 27.651zm107.266 60.969l-67.43 4.433V383.37c0-.238.202-.44.44-.44h66.55a.44.44 0 01.44.44zm42.071-101.085a8.65 8.65 0 011.823-.195 8.352 8.352 0 018.145 6.403l19.538 80.323c.595 2.446.102 4.911-1.388 6.94-1.492 2.032-3.699 3.242-6.215 3.408l-48.974 3.219V383.37c0-8.514-6.926-15.44-15.44-15.44h-66.55c-8.514 0-15.44 6.927-15.44 15.44v18.667l-1.85.122c-7.957.518-15.552-2.192-21.375-7.645-5.819-5.449-9.024-12.839-9.024-20.809 0-10.367 5.624-19.921 14.677-24.933a519.547 519.547 0 0156.301-26.873 519.616 519.616 0 0185.772-26.366z"></path>
  </symbol>
  <symbol xmlns="http://www.w3.org/2000/svg" viewBox="0 0 512 512" id="035-brush">
    <path d="M471.493 215.262l-40.258-112.654c-4.964-13.89-18.209-23.223-32.959-23.223H113.724c-14.75 0-27.995 9.333-32.959 23.223L40.507 215.262a15 15 0 0014.125 20.048h402.736a14.999 14.999 0 0014.125-20.048zm-367.185-29.953l19.984-55.925h263.416l19.984 55.925z" fill="#c68d7a"></path>
    <path d="M474.5 307.617h-437c-16.569 0-30-13.432-30-30v-62.98c0-16.569 13.431-30 30-30h437c16.568 0 30 13.431 30 30v62.98c0 16.569-13.432 30-30 30z" fill="#d1a08f"></path>
    <path d="M474.5 184.638h-4.023a29.854 29.854 0 014.023 15c0 51.351-41.628 92.979-92.979 92.979H11.523c5.188 8.964 14.874 15 25.977 15h437c16.568 0 30-13.431 30-30v-62.979c0-16.569-13.432-30-30-30z" fill="#c68d7a"></path>
    <path d="M491.796 432.614H20.204c-6.473 0-11.24-6.056-9.72-12.348l27.214-112.649h436.607l27.214 112.649c1.518 6.292-3.249 12.348-9.723 12.348z" fill="#f3eae6"></path>
    <path d="M512 277.615v-62.98c0-20.678-16.822-37.5-37.5-37.5h-8.666l-27.532-77.058c-6.034-16.862-22.118-28.192-40.022-28.192H113.72c-17.904 0-33.988 11.33-40.023 28.196l-27.531 77.054H37.5c-20.678 0-37.5 16.822-37.5 37.5v62.98c0 17.554 12.126 32.323 28.439 36.387l-10.056 41.624a7.5 7.5 0 005.529 9.051c3.924.948 8.079-1.461 9.051-5.529L43.6 315.116h18.08L50.24 425.117H20.204c-1.816-.072-2.787-1.305-2.431-3.087l8.704-36.024a7.5 7.5 0 00-5.529-9.052c-4.024-.979-8.079 1.502-9.052 5.529l-8.703 36.024c-2.684 10.737 5.856 21.692 17.011 21.609 44.031-.326 426.04-.293 471.593 0 11.073.071 19.688-10.845 17.011-21.609l-25.247-104.505C499.874 309.938 512 295.168 512 277.615zM87.821 105.13c3.905-10.913 14.313-18.246 25.899-18.246h284.56c11.585 0 21.994 7.333 25.898 18.243l25.728 72.007h-37.17l-17.963-50.274a7.501 7.501 0 00-7.063-4.977H124.29a7.5 7.5 0 00-7.063 4.977l-17.963 50.274h-37.17zm10.087 319.985H65.321l11.44-110.001h27.307zm41.886 0h-26.862l6.16-110.001h25.102zm42.847 0h-27.835l4.4-110.001h25.52zm42.966 0h-27.963l2.085-110.001h27.453zm44.103 0h-29.103l1.575-110.001h27.528zm15 0v-110h27.502l1.205 110.001H284.71zm43.708 0l-1.205-110.001h25.58l4.4 110.001zm43.788 0l-4.4-110.001h26.045l5.28 110.001zm41.942 0l-5.28-110.001h25.317l10.56 110.001zm80.079-3.087c.361 1.805-.61 3.015-2.431 3.088h-31.982l-10.56-110.001h19.144zM497 277.615c0 12.406-10.093 22.5-22.5 22.5h-437c-12.407 0-22.5-10.094-22.5-22.5v-62.98c0-12.406 10.093-22.5 22.5-22.5h323.742c4.142 0 7.5-3.357 7.5-7.5s-3.358-7.5-7.5-7.5H115.194l14.381-40.251h252.851l14.381 40.251h-5.565c-4.142 0-7.5 3.357-7.5 7.5s3.358 7.5 7.5 7.5h16.196l.013.001.023-.001h53.052l.025.002.046-.002H474.5c12.407 0 22.5 10.094 22.5 22.5z"></path>
  </symbol>
  <symbol xmlns="http://www.w3.org/2000/svg" viewBox="0 0 512.001 512.001" id="038-gloves">
    <path d="M356.394 232.145V120.264c0-11.328-9.397-20.51-20.988-20.51-11.592 0-20.989 9.183-20.989 20.51v140.251l-51.784-50.605c-8.009-7.826-20.994-7.826-29.003 0-7.422 7.253-8.042 18.811-1.437 26.782l82.581 99.671c5.74 6.927 8.871 15.57 8.871 24.484v46.749h158.679v-237.44c0-11.328-9.397-20.51-20.989-20.51s-20.988 9.183-20.988 20.51v61.99h-83.953z" fill="#7acaa6"></path>
    <path d="M262.633 209.91c-8.009-7.826-20.994-7.826-29.003 0-7.422 7.253-8.042 18.811-1.437 26.782l13.083 15.791 27.257-32.897z" fill="#57be92"></path>
    <path d="M440.348 243.884v-123.62c0-11.328-9.397-20.51-20.989-20.51s-20.988 9.183-20.988 20.51v123.62z" fill="#7acaa6"></path>
    <path d="M461.337 149.645c-3.351 0-6.507.787-9.317 2.152.185 1.095.305 2.212.305 3.359v123.62c0 62.861-50.959 113.82-113.82 113.82h-14.86v15h158.679v-237.44c.001-11.328-9.396-20.511-20.987-20.511z" fill="#57be92"></path>
    <path d="M398.371 277.145V87.003c0-11.328-9.397-20.51-20.989-20.51s-20.988 9.183-20.988 20.51v156.881zm-85.686 175.3h180.6c6.194 0 11.215-5.021 11.215-11.215v-22.418c0-6.194-5.021-11.215-11.215-11.215h-180.6c-6.194 0-11.216 5.021-11.216 11.215v22.418c.001 6.193 5.022 11.215 11.216 11.215z" fill="#7acaa6"></path>
    <path d="M493.286 407.595h-30c6.194 0 11.215 5.021 11.215 11.215v22.418c0 6.194-5.021 11.215-11.215 11.215h30c6.194 0 11.215-5.021 11.215-11.215V418.81c0-6.193-5.021-11.215-11.215-11.215z" fill="#57be92"></path>
    <path d="M483.038 508.001v-55.556H322.933v55.556a4 4 0 004 4h152.105a4 4 0 004-4z" fill="#fed2a4"></path>
    <path d="M453.038 452.445v55.556a4 4 0 01-4 4h30a4 4 0 004-4v-55.556z" fill="#ffbd86"></path>
    <path d="M419.359 99.754c-4.224 0-8.148 1.23-11.441 3.328 5.744 3.66 9.548 9.982 9.548 17.182v153.918c0 6.319 5.122 11.441 11.441 11.441 6.319 0 11.441-5.122 11.441-11.441V120.264c0-11.328-9.397-20.51-20.989-20.51zm-41.977-33.261c-4.224 0-8.148 1.23-11.441 3.328 5.744 3.66 9.548 9.982 9.548 17.182v187.179c0 6.319 5.122 11.441 11.441 11.441 6.318 0 11.441-5.122 11.441-11.441V87.003c0-11.328-9.397-20.51-20.989-20.51zm-41.977 33.261c-4.224 0-8.148 1.23-11.441 3.328 5.744 3.66 9.548 9.982 9.548 17.182v151.161c0 6.319 5.122 11.441 11.441 11.441 6.319 0 11.441-5.122 11.441-11.441V120.264c0-11.328-9.397-20.51-20.989-20.51z" fill="#57be92"></path>
    <path d="M71.654 184.892V61.272c0-11.328 9.397-20.51 20.989-20.51s20.989 9.183 20.989 20.51v123.62z" fill="#7acaa6"></path>
    <path d="M155.608 158.153V61.272c0-11.328 9.397-20.51 20.988-20.51 11.592 0 20.988 9.183 20.988 20.51v140.251l51.784-50.605c8.009-7.826 20.994-7.826 29.003 0 7.422 7.253 8.042 18.811 1.437 26.782l-82.582 99.671c-5.74 6.927-8.871 15.571-8.871 24.484v46.749H29.677v-237.44c0-11.328 9.397-20.51 20.989-20.51s20.989 9.183 20.989 20.51v46.99h83.953z" fill="#7acaa6"></path>
    <path d="M278.372 150.918c-6.549-6.399-16.421-7.559-24.183-3.494a19.675 19.675 0 01-4.38 15.275l-78.113 94.278a24 24 0 00-5.334 12.342c-4.573 36.72-35.782 64.283-72.785 64.283h-63.9v15h158.679v-46.748c0-8.914 3.132-17.556 8.871-24.484l82.581-99.671c6.605-7.97 5.985-19.528-1.436-26.781z" fill="#57be92"></path>
    <path d="M113.631 218.153V28.011c0-11.328 9.397-20.51 20.989-20.51s20.989 9.183 20.989 20.51v156.881z" fill="#7acaa6"></path>
    <path d="M144.052 229.892c6.382 0 11.556-5.174 11.556-11.556V28.011c0-11.328-9.397-20.51-20.988-20.51a21.22 21.22 0 00-11.556 3.397c5.68 3.67 9.433 9.961 9.433 17.114v190.325c-.001 6.382 5.173 11.555 11.555 11.555zm-41.977 3.261c6.382 0 11.556-5.174 11.556-11.556V61.272c0-11.328-9.397-20.51-20.988-20.51a21.228 21.228 0 00-11.556 3.396c5.68 3.67 9.433 9.961 9.433 17.114v160.325c-.001 6.382 5.173 11.556 11.555 11.556zm83.966-15c6.382 0 11.556-5.174 11.556-11.556V61.272c0-11.328-9.397-20.51-20.988-20.51a21.228 21.228 0 00-11.556 3.396c5.68 3.67 9.433 9.961 9.433 17.114v145.325c-.001 6.382 5.173 11.556 11.555 11.556zm-125.943 15c6.382 0 11.556-5.174 11.556-11.556V111.163c0-11.328-9.397-20.51-20.988-20.51a21.228 21.228 0 00-11.556 3.396c5.681 3.67 9.433 9.961 9.433 17.114v110.434c-.001 6.382 5.173 11.556 11.555 11.556z" fill="#57be92"></path>
    <path d="M199.316 393.453h-180.6c-6.194 0-11.215-5.021-11.215-11.215V359.82c0-6.194 5.021-11.215 11.215-11.215h180.6c6.194 0 11.215 5.021 11.215 11.215v22.418c.001 6.193-5.02 11.215-11.215 11.215z" fill="#7acaa6"></path>
    <path d="M199.316 348.603h-30c6.194 0 11.216 5.022 11.216 11.216v22.418c0 6.194-5.021 11.216-11.216 11.216h30c6.194 0 11.216-5.021 11.216-11.216v-22.418c0-6.194-5.021-11.216-11.216-11.216z" fill="#57be92"></path>
    <path d="M28.964 508.001V393.453h160.105v114.548a4 4 0 01-4 4H32.964a4 4 0 01-4-4z" fill="#fed2a4"></path>
    <path d="M159.069 393.453v114.548a4 4 0 01-4 4h30a4 4 0 004-4V393.453z" fill="#ffbd86"></path>
    <path d="M489.825 400.095v-229.94c0-15.444-12.779-28.01-28.488-28.01a28.697 28.697 0 00-13.488 3.345v-25.226c0-15.445-12.78-28.011-28.489-28.011a28.686 28.686 0 00-13.488 3.346v-8.597c0-15.444-12.78-28.01-28.488-28.01-15.709 0-28.489 12.565-28.489 28.01v8.595a28.694 28.694 0 00-13.492-3.347c-15.409 0-28.543 12.589-28.48 28.01v22.065c0 4.143 3.357 7.5 7.5 7.5s7.5-3.357 7.5-7.5V120.26c-.034-7.241 6.305-13.01 13.48-13.01 7.438 0 13.489 5.836 13.489 13.01v156.88c0 4.143 3.357 7.5 7.5 7.5s7.5-3.357 7.5-7.5c.029-.023.003-190.138.003-190.138 0-7.174 6.051-13.01 13.489-13.01s13.488 5.836 13.488 13.01v190.143c0 4.143 3.357 7.5 7.5 7.5s7.5-3.357 7.5-7.5V120.264c0-7.174 6.051-13.011 13.488-13.011 7.438 0 13.489 5.837 13.489 13.011v156.881c0 4.143 3.357 7.5 7.5 7.5s7.5-3.357 7.5-7.5v-106.99c0-7.174 6.051-13.01 13.488-13.01s13.488 5.836 13.488 13.01v229.94H331.141V360.85c0-10.63-3.763-21.026-10.595-29.274l-79.244-95.645 16.656-20.102 51.223 50.045a7.5 7.5 0 0012.741-5.364v-88.185c0-4.143-3.357-7.5-7.5-7.5s-7.5 3.357-7.5 7.5v70.372l-39.061-38.163c-.101-.098-.212-.183-.314-.279l18.038-21.771c9.137-11.026 8.29-26.903-1.97-36.932-10.887-10.64-28.601-10.638-39.487 0l-39.042 38.154V61.272c0-15.445-12.779-28.011-28.488-28.011a28.686 28.686 0 00-13.488 3.346v-8.596C163.11 12.566 150.33 0 134.621 0c-15.708 0-28.488 12.565-28.488 28.011v8.596a28.69 28.69 0 00-13.488-3.346c-15.709 0-28.489 12.565-28.489 28.011v25.226a28.7 28.7 0 00-13.488-3.345c-15.709 0-28.488 12.565-28.488 28.011v229.939C10.617 339.732.005 347.969.004 359.819v22.418c-.109 11.131 10.212 20.153 21.463 18.716v103.548c0 4.143 3.357 7.5 7.5 7.5s7.5-3.357 7.5-7.5V400.953h7.539c4.143 0 7.5-3.357 7.5-7.5s-3.357-7.5-7.5-7.5H18.717a3.72 3.72 0 01-3.716-3.716v-22.418a3.72 3.72 0 013.716-3.716h180.6a3.72 3.72 0 013.716 3.716v22.418a3.72 3.72 0 01-3.716 3.716H74.003c-4.143 0-7.5 3.357-7.5 7.5s3.357 7.5 7.5 7.5h107.566v103.548c0 4.143 3.357 7.5 7.5 7.5s7.5-3.357 7.5-7.5V400.953c11.012.775 21.552-6.94 21.463-18.716v-22.418c-.03-12.031-10.649-19.985-22.176-18.716v-39.248c0-7.141 2.538-14.137 7.146-19.699l28.559-34.469 77.433 93.458c4.607 5.563 7.146 12.562 7.146 19.705v39.245c-11.567-1.349-22.176 6.849-22.171 18.716v22.418c-.112 11.127 10.211 20.154 21.463 18.715v44.557c0 4.143 3.357 7.5 7.5 7.5s7.5-3.357 7.5-7.5v-44.557h145.105v44.557c0 4.143 3.357 7.5 7.5 7.5s7.5-3.357 7.5-7.5v-44.557c11.005.772 21.554-6.938 21.463-18.715v-22.418c-.031-12.024-10.645-19.99-22.175-18.716zM191.452 272.586c-6.833 8.248-10.596 18.643-10.596 29.27v39.248H37.177v-229.94c0-7.174 6.051-13.011 13.488-13.011s13.488 5.837 13.488 13.011v106.989c0 4.143 3.357 7.5 7.5 7.5s7.5-3.357 7.5-7.5V61.272c0-7.174 6.051-13.011 13.489-13.011s13.488 5.837 13.488 13.011v156.881c0 4.143 3.357 7.5 7.5 7.5s7.5-3.357 7.5-7.5V28.011c0-7.174 6.051-13.011 13.488-13.011 7.438 0 13.489 5.837 13.489 13.011v190.142c0 4.143 3.357 7.5 7.5 7.5s7.5-3.357 7.5-7.5V61.272c0-7.174 6.051-13.011 13.488-13.011s13.488 5.837 13.488 13.011v140.251a7.5 7.5 0 0012.742 5.364l51.784-50.605c5.104-4.989 13.411-4.99 18.519-.001 4.626 4.521 5.015 11.673.903 16.634zm305.549 168.643a3.72 3.72 0 01-3.716 3.715h-180.6a3.72 3.72 0 01-3.716-3.715v-22.418a3.72 3.72 0 013.716-3.716h180.6a3.72 3.72 0 013.716 3.716z"></path>
  </symbol>
</svg>
